HIERARCHY
ROOT root
{
	OFFSET 0.000000 0.000000 0.000000
	CHANNELS 6 Xposition Yposition Zposition Zrotation Yrotation Xrotation
	JOINT lhip
	{
		OFFSET 0.058581 -0.082280 -0.017664
		CHANNELS 3 Zrotation Yrotation Xrotation
		JOINT lknee
		{
			OFFSET 0.043451 -0.386469 0.008037
			CHANNELS 3 Zrotation Yrotation Xrotation
			JOINT lankle
			{
				OFFSET -0.014790 -0.426874 -0.037428
				CHANNELS 3 Zrotation Yrotation Xrotation
				JOINT ltoe
				{
					OFFSET 0.041054 -0.060286 0.122042
					CHANNELS 3 Zrotation Yrotation Xrotation
					End Site
					{
						OFFSET 0.000000 0.000000 0.000000
					}
				}
			}
		}
	}
	JOINT rhip
	{
		OFFSET -0.060310 -0.090513 -0.013543
		CHANNELS 3 Zrotation Yrotation Xrotation
		JOINT rknee
		{
			OFFSET -0.043257 -0.383688 -0.004843
			CHANNELS 3 Zrotation Yrotation Xrotation
			JOINT rankle
			{
				OFFSET 0.019056 -0.420046 -0.034562
				CHANNELS 3 Zrotation Yrotation Xrotation
				JOINT rtoe
				{
					OFFSET -0.034840 -0.062106 0.130323
					CHANNELS 3 Zrotation Yrotation Xrotation
					End Site
					{
						OFFSET 0.000000 0.000000 0.000000
					}
				}
			}
		}
	}
	JOINT lowerback
	{
		OFFSET 0.004439 0.124404 -0.038385
		CHANNELS 3 Zrotation Yrotation Xrotation
		JOINT upperback
		{
			OFFSET 0.004488 0.137956 0.026820
			CHANNELS 3 Zrotation Yrotation Xrotation
			JOINT chest
			{
				OFFSET -0.002265 0.056032 0.002855
				CHANNELS 3 Zrotation Yrotation Xrotation
				JOINT lowerneck
				{
					OFFSET -0.013390 0.211636 -0.033468
					CHANNELS 3 Zrotation Yrotation Xrotation
					JOINT upperneck
					{
						OFFSET 0.010113 0.088937 0.050410
						CHANNELS 3 Zrotation Yrotation Xrotation
						End Site
						{
							OFFSET 0.000000 0.000000 0.000000
						}
					}
				}
				JOINT lclavicle
				{
					OFFSET 0.071702 0.114000 -0.018898
					CHANNELS 3 Zrotation Yrotation Xrotation
					JOINT lshoulder
					{
						OFFSET 0.122921 0.045205 -0.019046
						CHANNELS 3 Zrotation Yrotation Xrotation
						JOINT lelbow
						{
							OFFSET 0.255332 -0.015649 -0.022946
							CHANNELS 3 Zrotation Yrotation Xrotation
							JOINT lwrist
							{
								OFFSET 0.265709 0.012698 -0.007375
								CHANNELS 3 Zrotation Yrotation Xrotation
								End Site
								{
									OFFSET 0.000000 0.000000 0.000000
								}
							}
						}
					}
				}
				JOINT rclavicle
				{
					OFFSET -0.082954 0.112472 -0.023707
					CHANNELS 3 Zrotation Yrotation Xrotation
					JOINT rshoulder
					{
						OFFSET -0.113228 0.046853 -0.008472
						CHANNELS 3 Zrotation Yrotation Xrotation
						JOINT relbow
						{
							OFFSET -0.260127 -0.014369 -0.031269
							CHANNELS 3 Zrotation Yrotation Xrotation
							JOINT rwrist
							{
								OFFSET -0.269108 0.006794 -0.006027
								CHANNELS 3 Zrotation Yrotation Xrotation
								End Site
								{
									OFFSET 0.000000 0.000000 0.000000
								}
							}
						}
					}
				}
			}
		}
	}
}
MOTION
Frames: 14
Frame Time: 0.033333
-0.213322 0.301171 0.860075 106.331344 -6.147093 120.852870 8.144176 -2.190737 -74.634066 -13.500480 11.401219 44.080834 0.879324 -2.740564 -6.941219 0.000000 -0.000000 0.000000 -15.812342 -21.550700 -66.270330 0.716435 -20.193356 58.905720 7.335266 -10.225613 -16.936054 0.000000 -0.000000 0.000000 15.915733 -4.416695 64.270285 -3.300604 10.644627 -1.027025 2.511987 6.739633 7.803324 -6.780162 -19.910704 -4.962228 5.848880 -9.748082 -3.662833 -13.202097 -18.364206 -3.116407 -47.365753 -8.108651 28.873194 -97.364391 -78.022259 131.394712 68.260101 -30.815760 -12.073685 -1.567458 36.162968 -2.416608 -18.380378 12.548532 -36.082484 -0.688907 13.236084 -34.484446 -45.000227 22.455903 9.494488 
-0.210469 0.304346 0.860253 106.565495 -6.022197 121.878356 8.658817 -2.467840 -75.466908 -13.534734 11.615211 43.951051 0.887101 -2.507760 -7.025108 0.000000 -0.000000 0.000000 -15.938742 -21.449606 -66.649879 0.821128 -20.420318 58.473292 7.354154 -10.352965 -17.349407 0.000000 -0.000000 0.000000 16.053251 -4.434981 63.551778 -3.221614 10.685362 -0.966068 2.481897 6.732835 7.781074 -6.743668 -20.060131 -4.677216 5.788143 -9.717699 -4.117353 -13.228849 -18.134367 -2.951187 -47.428417 -8.255791 29.042801 -98.900763 -78.037695 132.436733 68.401338 -30.271461 -12.173883 -1.199145 36.112978 -1.943035 -18.941745 12.779096 -36.460171 -0.470374 12.844950 -34.836633 -46.469782 22.803813 9.343261 
-0.206292 0.306369 0.862207 106.633316 -5.880049 122.096482 8.518601 -2.449654 -75.216246 -13.507194 11.368685 43.820136 0.867440 -2.556811 -7.217030 0.000000 -0.000000 0.000000 -15.672001 -21.205557 -66.385322 0.561520 -20.256612 58.149588 7.063649 -10.315211 -17.560180 0.000000 -0.000000 0.000000 15.860055 -4.400008 64.101755 -3.239939 10.759438 -1.239337 2.583987 6.757506 7.829237 -6.592947 -19.957181 -5.063739 5.917112 -9.774595 -4.058955 -13.182940 -18.109081 -3.090944 -47.313302 -8.321340 29.158140 -99.141455 -78.099673 132.676937 68.829686 -30.039935 -13.117460 -1.398170 36.102119 -2.316405 -18.891091 13.159049 -36.514178 -0.591361 12.555869 -35.418813 -46.856083 22.549644 8.793164 
-0.203539 0.308401 0.863663 106.910458 -6.018696 122.576775 8.575268 -2.885004 -75.352396 -13.434878 11.343782 43.445680 0.736921 -2.567279 -7.222620 0.000000 -0.000000 0.000000 -15.860752 -21.283762 -66.277895 0.442741 -20.441583 57.777719 7.525671 -10.467540 -17.490206 0.000000 -0.000000 0.000000 15.835829 -4.555060 63.903236 -3.197978 10.620909 -1.295571 2.521508 6.716222 7.849348 -6.206457 -20.101053 -5.627382 5.854128 -9.589001 -3.944945 -13.026830 -17.974539 -3.077853 -47.120024 -8.500859 29.383893 -99.519579 -78.057560 133.301986 70.036293 -30.550537 -17.263562 -1.393564 36.053094 -2.339815 -19.029477 13.552701 -36.687988 -0.463767 12.088245 -35.875655 -46.757052 22.553019 8.752992 
-0.201219 0.310247 0.865511 107.065080 -6.134575 123.063525 8.483581 -3.161685 -75.401135 -13.477162 11.134208 42.924812 0.727854 -2.434498 -7.130226 0.000000 -0.000000 0.000000 -15.995180 -21.239745 -66.211382 0.461684 -20.429017 57.176030 7.525058 -10.589786 -17.601803 0.000000 -0.000000 0.000000 15.998722 -4.597813 63.507344 -3.196859 10.487523 -1.239066 2.428321 6.570528 7.926633 -6.037409 -20.059022 -5.869906 5.932705 -9.602229 -4.036787 -13.020870 -18.151694 -2.915461 -46.925529 -8.679720 29.341530 -99.249753 -78.139849 132.765633 69.819738 -30.548127 -16.863595 -1.351049 36.081259 -2.496988 -18.973191 13.730422 -36.668414 -0.333569 12.012571 -35.874054 -46.430718 22.324964 8.326200 
-0.199397 0.311471 0.866880 107.212055 -6.100887 123.576014 8.679345 -3.326360 -75.579601 -13.447186 11.165144 42.544129 0.698918 -2.352200 -7.090779 0.000000 -0.000000 0.000000 -15.989270 -21.187118 -66.298491 0.446705 -20.682385 56.873205 7.907063 -10.817518 -17.407464 0.000000 -0.000000 0.000000 16.124834 -4.346009 62.835496 -2.914034 10.564055 -1.111207 2.566073 6.632098 7.904137 -6.202781 -19.806570 -5.437262 6.019993 -10.066641 -4.478000 -13.323597 -18.571905 -2.517435 -46.880134 -8.956101 29.475126 -96.921925 -78.271646 130.307968 69.877503 -31.062087 -16.820630 -0.913415 36.060641 -1.841545 -19.283348 13.417751 -36.716908 -0.132805 11.924619 -35.760737 -46.516033 22.447686 8.672740 
-0.197185 0.312407 0.869270 107.340772 -6.119633 123.718446 8.562886 -3.512507 -75.265864 -13.248946 11.005073 42.115540 0.488063 -2.390771 -6.921515 0.000000 -0.000000 0.000000 -15.898179 -21.109890 -66.028866 0.260372 -20.666493 56.433736 7.705958 -10.745493 -17.327335 0.000000 -0.000000 0.000000 16.190007 -4.396780 62.897754 -2.946459 10.499299 -1.202715 2.616867 6.558101 7.812076 -6.177643 -20.106223 -5.456512 5.995550 -9.825608 -5.045703 -13.613447 -18.696853 -2.336764 -46.714731 -8.984632 29.395684 -97.544750 -78.377298 130.536330 68.573589 -30.889242 -16.630569 -0.836437 36.248548 -1.656247 -19.342425 13.324957 -36.735666 -0.116722 11.731043 -35.846239 -45.624969 22.506467 9.154779 
-0.195458 0.312704 0.871678 107.329323 -6.160120 123.801560 8.407988 -3.652169 -74.899777 -13.194372 10.682128 41.613312 0.585758 -2.298955 -6.808127 0.000000 -0.000000 0.000000 -15.818036 -20.969019 -65.724904 0.278275 -20.511954 55.884381 8.041441 -10.843797 -17.144396 0.000000 -0.000000 0.000000 16.107487 -4.278786 63.045702 -3.039826 10.464676 -1.390436 2.629756 6.609843 7.791891 -6.028292 -20.302565 -5.917363 6.325613 -9.673024 -4.901026 -13.393526 -18.787389 -2.767621 -47.172436 -9.005315 29.599541 -95.632589 -78.441572 128.357442 66.794549 -29.989278 -14.395409 -0.831344 36.283654 -2.079992 -18.781703 13.350028 -36.263359 -0.525028 11.842512 -35.778752 -43.214031 21.681069 10.243676 
-0.193992 0.312449 0.873940 107.378859 -6.095945 123.853719 8.372340 -3.776442 -74.554123 -13.068347 10.336679 41.176452 0.608347 -2.226010 -6.758179 0.000000 -0.000000 0.000000 -15.651804 -20.832918 -65.461351 0.228914 -20.541212 55.465327 8.041753 -10.804697 -17.037454 0.000000 -0.000000 0.000000 16.106418 -4.140312 63.056080 -3.018360 10.513711 -1.564997 2.704529 6.621744 7.717064 -6.091907 -20.327209 -6.052327 6.320052 -9.789820 -4.901027 -13.425346 -18.934834 -2.889720 -47.454569 -9.003445 29.708818 -93.665674 -78.554962 126.345482 66.195644 -30.155734 -13.604999 -0.881842 36.312330 -2.360393 -18.297838 13.477199 -36.049170 -0.766951 11.647355 -35.762818 -42.020826 21.369164 11.079087 
-0.192193 0.311749 0.877544 107.043139 -6.100892 123.640412 8.154586 -3.786836 -73.705101 -12.914076 10.018668 40.552357 0.603473 -2.123440 -6.657333 0.000000 -0.000000 0.000000 -15.392471 -20.526690 -65.017020 0.297375 -20.159201 54.829898 8.127810 -11.000769 -16.590866 0.000000 -0.000000 0.000000 16.054113 -3.797745 63.200417 -3.039077 10.595149 -1.243650 2.784682 6.588062 7.488979 -6.463371 -20.653437 -5.753389 6.705164 -9.791576 -5.462772 -13.519933 -19.612835 -2.735970 -47.439075 -9.062909 29.663415 -92.698882 -78.818579 125.506121 66.300519 -30.392271 -13.956511 -1.572567 36.466019 -2.660355 -17.133096 13.035152 -35.353315 -1.424344 11.902921 -36.053647 -40.142775 20.113254 11.460677 
-0.191028 0.310046 0.881049 106.705744 -5.863874 123.392246 7.863592 -3.635126 -72.899592 -12.633807 9.336108 40.026226 0.547158 -1.893412 -6.427726 0.000000 -0.000000 0.000000 -14.951283 -19.879729 -64.553089 0.153374 -19.721511 54.121001 7.839328 -10.650076 -16.454893 0.000000 -0.000000 0.000000 15.803425 -3.441207 63.405723 -3.227454 10.656286 -1.346703 2.851829 6.582509 7.277250 -6.614655 -20.643805 -5.251032 7.087097 -9.749720 -5.872992 -13.228713 -19.905886 -2.658405 -47.703018 -9.033854 29.427384 -90.579268 -78.860868 123.889138 66.565535 -30.680735 -14.560207 -2.598761 36.592076 -3.255303 -15.078218 13.284650 -34.713802 -1.465600 11.652025 -35.517118 -39.948376 18.894841 10.815763 
-0.190463 0.307531 0.885276 106.513219 -5.612584 123.000440 7.895362 -3.669058 -71.903241 -12.331041 8.918862 39.303435 0.599503 -1.701815 -6.068052 0.000000 -0.000000 0.000000 -14.535805 -19.328538 -63.944621 0.314113 -19.489810 53.345946 7.393905 -10.945094 -15.802720 0.000000 -0.000000 0.000000 15.564467 -3.136421 63.060396 -3.289962 10.588768 -0.962026 2.940043 6.393344 7.100306 -6.515381 -20.445756 -5.040760 7.328508 -9.484221 -5.971134 -12.944714 -20.168291 -2.452544 -47.814668 -9.227399 29.228063 -90.515065 -79.160837 123.939662 66.062569 -30.700437 -15.510683 -3.278742 36.729220 -3.383806 -13.287650 13.962213 -33.716790 -1.012125 11.033014 -35.321990 -39.596840 17.539664 10.539229 
-0.190279 0.304627 0.890042 106.508421 -5.498055 122.389360 7.747293 -3.992591 -70.719796 -11.854331 8.329190 38.523324 0.627755 -1.410589 -5.724372 0.000000 -0.000000 0.000000 -14.236920 -18.760035 -62.885514 0.396737 -19.117761 52.268836 7.274002 -11.094010 -15.487864 0.000000 -0.000000 0.000000 15.293490 -2.977024 62.639810 -3.262683 10.149802 -0.852752 3.004298 6.154016 6.982745 -6.595493 -19.962306 -5.067741 7.300225 -9.111659 -5.479651 -12.395409 -20.077890 -2.625251 -48.534514 -9.383766 29.243833 -87.843210 -79.683423 120.802829 64.282717 -29.621063 -16.036172 -3.416447 36.623594 -3.772222 -11.001246 15.627463 -32.381127 -0.872026 10.386435 -34.835595 -36.648582 15.473163 11.178349 
-0.188082 0.300604 0.896860 105.987635 -5.158246 121.083988 7.046952 -3.649145 -68.334829 -11.334464 7.349849 37.548123 0.659840 -1.425005 -5.612119 0.000000 -0.000000 0.000000 -13.507533 -17.721730 -61.147937 0.153245 -18.344863 51.038023 7.149014 -10.954096 -15.122357 0.000000 -0.000000 0.000000 14.543648 -2.361889 63.047414 -3.259983 9.848748 -0.882139 3.337725 6.060801 6.512106 -6.876966 -19.682929 -5.353922 7.274361 -8.637945 -4.912466 -12.341175 -20.377936 -3.074899 -49.029138 -9.258942 29.381277 -81.424470 -79.970317 113.455139 61.863243 -29.100363 -15.374167 -3.276559 36.807501 -4.577175 -8.144760 16.660887 -30.133242 -0.111511 10.336010 -33.853422 -30.821706 13.017686 11.502140 
